# xmcd
# 
# Track frame offsets:
#     150
#     13807
#     26522
#     39805
#     52830
#     66037
#     77082
#     90595
#     104125
#     114810
#     130005
# 
# Disc length: 1887
# 
# Revision: 9
# Processed by: cddbd v1.5.2PL0 Copyright (c) Steve Scherf et al.
# Submitted via: fre:ac v1.0.31
# 
DISCID=7c075d0b
DTITLE=Etta James - The Best of Etta James
DYEAR=1999
DGENRE=Blues - Soul
TTITLE0=At Last
TTITLE1=Something's Got a Hold On Me
TTITLE2=All I Cound Do Was Cry
TTITLE3=Stop The Wedding
TTITLE4=Pushover
TTITLE5=Don't Cry Baby
TTITLE6=Trust In Me
TTITLE7=My Dearest Darling
TTITLE8=Tell Mama
TTITLE9=Almost Persuaded
TTITLE10=I'd Rather Go Blind
EXTD=
EXTT0=
EXTT1=
EXTT2=
EXTT3=
EXTT4=
EXTT5=
EXTT6=
EXTT7=
EXTT8=
EXTT9=
EXTT10=
PLAYORDER=
